<?xml version="1.0" standalone="no"?><!DOCTYPE svg PUBLIC "-//W3C//DTD SVG 1.1//EN" "http://www.w3.org/Graphics/SVG/1.1/DTD/svg11.dtd"><svg class="icon" style="" viewBox="0 0 1024 1024" version="1.1" xmlns="http://www.w3.org/2000/svg" p-id="1521" xmlns:xlink="http://www.w3.org/1999/xlink" width="200" height="200"><defs><style type="text/css"><![CDATA[

]]></style></defs><path d="M511.549 2.299c-281.394 0-509.446 228.089-509.446 509.441 0 281.358 228.052 509.453 509.446 509.453 281.315 0 509.447-228.095 509.447-509.453 0.001-281.354-228.132-509.441-509.447-509.441zM510.023 874.926c-40.69 0-73.602-32.916-73.602-73.601 0-40.65 32.911-73.601 73.602-73.601 40.682 0 73.598 32.953 73.598 73.601-0.001 40.685-32.917 73.601-73.598 73.601zM606.409 327.798c0 0.132-0.037 0.263-0.073 0.533l-0.066 0.234-0.101 0.528-0.03 0.198-0.066 0.396-0.073 0.33c0 0-62.153 289.281-62.183 289.815 0 0 4.281-21.793 0 0.035-4.278 21.828-15.157 33.796-33.794 33.796-18.671 0-28.471-13.831-34.229-36.255-5.758-22.42-60.529-280.987-60.564-281.22 0 0-0.031-0.101-0.066-0.234l-0.036-0.228c-0.037-0.169-0.097-0.336-0.097-0.502l-0.065-0.396-0.066-0.365c-0.031-0.097-0.064-0.365-0.064-0.365l-0.066-0.396-0.066-0.169-0.101-0.563c0 0-0.036-0.228-0.066-0.33l-0.064-0.365c0 0-0.037-0.263-0.101-0.527 0 0 0-0.101-0.031-0.204l-0.036-0.262c0 0-0.097-0.33-0.133-0.498l-0.065-0.396-0.066-0.371-0.066-0.33-0.065-0.397-0.037-0.197-0.101-0.528-0.066-0.371c0 0-0.058-0.263-0.058-0.396-1.324-6.437-2.055-13.132-2.055-19.965 0-54.397 44.004-98.444 98.437-98.444 54.426 0 98.442 44.047 98.442 98.444 0 6.836-0.732 13.531-2.055 19.967z" p-id="1522" fill="#fff"></path></svg>