<?xml version="1.0" standalone="no"?><!DOCTYPE svg PUBLIC "-//W3C//DTD SVG 1.1//EN" "http://www.w3.org/Graphics/SVG/1.1/DTD/svg11.dtd"><svg t="1481610877405" class="icon" style="" viewBox="0 0 1024 1024" version="1.1" xmlns="http://www.w3.org/2000/svg" p-id="2435" xmlns:xlink="http://www.w3.org/1999/xlink" width="200" height="200"><defs><style type="text/css"></style></defs><path d="M872 136.992q28 0 47.488 19.488t19.488 47.488l0 51.008q0 28-19.488 47.488t-47.488 19.488l-742.016 0q-28 0-47.488-19.488t-19.488-47.488l0-51.008q0-28 19.488-47.488t47.488-19.488l742.016 0zM872 450.016q28 0 47.488 19.488t19.488 47.488l0 51.008q0 28-19.488 47.488t-47.488 19.488l-742.016 0q-28 0-47.488-19.488t-19.488-47.488l0-51.008q0-28 19.488-47.488t47.488-19.488l742.016 0zM872 763.008q28 0 47.488 19.488t19.488 47.488l0 51.008q0 28-19.488 47.488t-47.488 19.488l-742.016 0q-28 0-47.488-19.488t-19.488-47.488l0-51.008q0-28 19.488-47.488t47.488-19.488l742.016 0z" p-id="2436" fill="#ffffff"></path></svg>